<mxfile host="app.diagrams.net" modified="2024-02-06T18:36:48.935Z" agent="Mozilla/5.0 (Windows NT 10.0; Win64; x64) AppleWebKit/537.36 (KHTML, like Gecko) Chrome/121.0.0.0 Safari/537.36" etag="wbti3w5jC7w0lm6uQ8ro" version="23.1.1" type="device">
  <diagram name="Page-1" id="XZ8Tk5E2c9BNpv22qPqn">
    <mxGraphModel dx="2109" dy="655" grid="1" gridSize="10" guides="1" tooltips="1" connect="1" arrows="1" fold="1" page="1" pageScale="1" pageWidth="850" pageHeight="1100" math="0" shadow="0">
      <root>
        <mxCell id="0" />
        <mxCell id="1" parent="0" />
        <mxCell id="1n6BO7QmYEcFSWPlNpG2-7" style="edgeStyle=orthogonalEdgeStyle;rounded=0;orthogonalLoop=1;jettySize=auto;html=1;startArrow=block;startFill=1;strokeWidth=3;" parent="1" source="1n6BO7QmYEcFSWPlNpG2-1" target="1n6BO7QmYEcFSWPlNpG2-5" edge="1">
          <mxGeometry relative="1" as="geometry" />
        </mxCell>
        <mxCell id="1n6BO7QmYEcFSWPlNpG2-16" style="edgeStyle=orthogonalEdgeStyle;shape=connector;rounded=0;orthogonalLoop=1;jettySize=auto;html=1;labelBackgroundColor=default;strokeColor=default;strokeWidth=4;align=center;verticalAlign=middle;fontFamily=Helvetica;fontSize=11;fontColor=default;endArrow=classic;" parent="1" source="1n6BO7QmYEcFSWPlNpG2-1" target="1n6BO7QmYEcFSWPlNpG2-15" edge="1">
          <mxGeometry relative="1" as="geometry">
            <Array as="points">
              <mxPoint x="570" y="350" />
              <mxPoint x="570" y="350" />
            </Array>
          </mxGeometry>
        </mxCell>
        <mxCell id="1n6BO7QmYEcFSWPlNpG2-1" value="&lt;b&gt;&lt;font style=&quot;font-size: 14px;&quot;&gt;index.html,&lt;/font&gt;&lt;br&gt;signup.js,&lt;br&gt;login.js,&lt;br&gt;loginstatus.js&lt;br&gt;(3,2,6,5)&lt;/b&gt;" style="html=1;verticalLabelPosition=middle;align=center;labelBackgroundColor=none;verticalAlign=middle;strokeWidth=2;strokeColor=#d6b656;shadow=0;dashed=0;shape=mxgraph.ios7.icons.document;fillColor=#fff2cc;labelPosition=center;" parent="1" vertex="1">
          <mxGeometry x="520" y="150" width="130" height="140" as="geometry" />
        </mxCell>
        <mxCell id="1n6BO7QmYEcFSWPlNpG2-2" value="&lt;b&gt;1.adminheader.html&lt;br&gt;2.footer.html&lt;br&gt;3.head&lt;br&gt;4.header.html&lt;br&gt;5.loading.html&lt;br&gt;&lt;/b&gt;&lt;div style=&quot;&quot;&gt;&lt;span style=&quot;background-color: initial;&quot;&gt;&lt;b&gt;6.popup.html&lt;/b&gt;&lt;/span&gt;&lt;/div&gt;" style="html=1;verticalLabelPosition=middle;align=left;labelBackgroundColor=none;verticalAlign=middle;strokeWidth=2;strokeColor=#9673a6;shadow=0;dashed=0;shape=mxgraph.ios7.icons.documents;fillColor=#e1d5e7;labelPosition=center;fontColor=#000000;" parent="1" vertex="1">
          <mxGeometry x="-45" y="70" width="140" height="120" as="geometry" />
        </mxCell>
        <mxCell id="1n6BO7QmYEcFSWPlNpG2-3" value="&lt;b&gt;&lt;font style=&quot;font-size: 18px;&quot;&gt;J Query includes&amp;nbsp;&lt;/font&gt;&lt;/b&gt;" style="text;html=1;strokeColor=none;fillColor=none;align=center;verticalAlign=middle;whiteSpace=wrap;rounded=0;fontStyle=4" parent="1" vertex="1">
          <mxGeometry x="-60" y="30" width="170" height="30" as="geometry" />
        </mxCell>
        <mxCell id="1n6BO7QmYEcFSWPlNpG2-4" value="&lt;font style=&quot;font-size: 18px;&quot;&gt;&lt;b&gt;Style sheets&amp;nbsp;&lt;/b&gt;&lt;/font&gt;" style="text;html=1;strokeColor=none;fillColor=none;align=center;verticalAlign=middle;whiteSpace=wrap;rounded=0;fontStyle=4" parent="1" vertex="1">
          <mxGeometry x="-55" y="230" width="160" height="30" as="geometry" />
        </mxCell>
        <mxCell id="1n6BO7QmYEcFSWPlNpG2-14" style="edgeStyle=orthogonalEdgeStyle;rounded=0;orthogonalLoop=1;jettySize=auto;html=1;strokeWidth=4;entryX=0.37;entryY=-0.023;entryDx=0;entryDy=0;entryPerimeter=0;" parent="1" source="1n6BO7QmYEcFSWPlNpG2-5" target="1n6BO7QmYEcFSWPlNpG2-33" edge="1">
          <mxGeometry relative="1" as="geometry">
            <mxPoint x="305" y="360" as="targetPoint" />
          </mxGeometry>
        </mxCell>
        <mxCell id="1n6BO7QmYEcFSWPlNpG2-5" value="&lt;b&gt;&lt;font style=&quot;font-size: 14px;&quot;&gt;adminlogin.html,&lt;/font&gt;&lt;br&gt;adminlogin.js&lt;br&gt;adminloginstatus.js&lt;br&gt;&lt;span style=&quot;border-color: var(--border-color);&quot;&gt;(3,2,6,5)&lt;/span&gt;&lt;/b&gt;" style="html=1;verticalLabelPosition=middle;align=center;labelBackgroundColor=none;verticalAlign=middle;strokeWidth=2;strokeColor=#d6b656;shadow=0;dashed=0;shape=mxgraph.ios7.icons.document;fillColor=#fff2cc;labelPosition=center;" parent="1" vertex="1">
          <mxGeometry x="240" y="145" width="130" height="150" as="geometry" />
        </mxCell>
        <mxCell id="1n6BO7QmYEcFSWPlNpG2-6" value="Style.css" style="html=1;verticalLabelPosition=middle;align=center;labelBackgroundColor=none;verticalAlign=middle;strokeWidth=2;strokeColor=#b85450;shadow=0;dashed=0;shape=mxgraph.ios7.icons.document;labelPosition=center;fillColor=#f8cecc;" parent="1" vertex="1">
          <mxGeometry x="-15" y="280" width="80" height="100" as="geometry" />
        </mxCell>
        <mxCell id="1n6BO7QmYEcFSWPlNpG2-12" value="&lt;b&gt;&lt;font style=&quot;font-size: 14px;&quot;&gt;Webapp starts here&amp;nbsp;&lt;/font&gt;&lt;/b&gt;" style="text;html=1;strokeColor=none;fillColor=none;align=center;verticalAlign=middle;whiteSpace=wrap;rounded=0;" parent="1" vertex="1">
          <mxGeometry x="540" y="110" width="80" height="30" as="geometry" />
        </mxCell>
        <mxCell id="1n6BO7QmYEcFSWPlNpG2-18" style="edgeStyle=orthogonalEdgeStyle;shape=connector;rounded=0;orthogonalLoop=1;jettySize=auto;html=1;labelBackgroundColor=default;strokeColor=default;strokeWidth=4;align=center;verticalAlign=middle;fontFamily=Helvetica;fontSize=11;fontColor=default;endArrow=classic;entryX=-0.022;entryY=0.619;entryDx=0;entryDy=0;entryPerimeter=0;" parent="1" source="1n6BO7QmYEcFSWPlNpG2-15" target="1n6BO7QmYEcFSWPlNpG2-17" edge="1">
          <mxGeometry relative="1" as="geometry">
            <mxPoint x="480" y="680" as="targetPoint" />
            <Array as="points">
              <mxPoint x="450" y="445" />
              <mxPoint x="450" y="653" />
            </Array>
          </mxGeometry>
        </mxCell>
        <mxCell id="1n6BO7QmYEcFSWPlNpG2-15" value="&lt;b style=&quot;&quot;&gt;&lt;font style=&quot;font-size: 14px;&quot;&gt;home.html&lt;/font&gt;&lt;span style=&quot;font-size: 14px;&quot;&gt;,&lt;/span&gt;&lt;br&gt;&lt;span style=&quot;&quot;&gt;home.js&lt;/span&gt;&lt;br&gt;&lt;span style=&quot;&quot;&gt;loginstatus.js&lt;/span&gt;&lt;br&gt;&lt;span style=&quot;&quot;&gt;(2,3,5,6,4)&lt;/span&gt;&lt;br&gt;&lt;/b&gt;" style="html=1;verticalLabelPosition=middle;align=center;labelBackgroundColor=none;verticalAlign=middle;strokeWidth=2;strokeColor=#d6b656;shadow=0;dashed=0;shape=mxgraph.ios7.icons.document;fillColor=#fff2cc;labelPosition=center;" parent="1" vertex="1">
          <mxGeometry x="520" y="370" width="130" height="150" as="geometry" />
        </mxCell>
        <mxCell id="1n6BO7QmYEcFSWPlNpG2-17" value="&lt;b&gt;&lt;font style=&quot;font-size: 14px;&quot;&gt;Cart.html,&lt;/font&gt;&lt;br&gt;cart.js&lt;br&gt;&lt;/b&gt;&lt;b style=&quot;border-color: var(--border-color);&quot;&gt;loginstatus.js&lt;/b&gt;&lt;b&gt;&lt;br&gt;(2,3,5,6,4)&lt;br&gt;&lt;/b&gt;" style="html=1;verticalLabelPosition=middle;align=center;labelBackgroundColor=none;verticalAlign=middle;strokeWidth=2;strokeColor=#d6b656;shadow=0;dashed=0;shape=mxgraph.ios7.icons.document;fillColor=#fff2cc;labelPosition=center;" parent="1" vertex="1">
          <mxGeometry x="520" y="560" width="130" height="150" as="geometry" />
        </mxCell>
        <mxCell id="1n6BO7QmYEcFSWPlNpG2-28" style="edgeStyle=orthogonalEdgeStyle;shape=connector;rounded=0;orthogonalLoop=1;jettySize=auto;html=1;labelBackgroundColor=default;strokeColor=default;strokeWidth=4;align=center;verticalAlign=middle;fontFamily=Helvetica;fontSize=11;fontColor=default;endArrow=classic;" parent="1" source="1n6BO7QmYEcFSWPlNpG2-19" target="1n6BO7QmYEcFSWPlNpG2-27" edge="1">
          <mxGeometry relative="1" as="geometry" />
        </mxCell>
        <mxCell id="1n6BO7QmYEcFSWPlNpG2-19" value="&lt;b&gt;&lt;font style=&quot;font-size: 14px;&quot;&gt;sellproduct.html,&lt;/font&gt;&lt;br&gt;loginstatus.js,&lt;br&gt;productcategories.js,&lt;br&gt;sellproduct.js,&lt;br&gt;counter.js,&lt;br&gt;priceformat.js,&lt;br&gt;imagereview.js&lt;br&gt;(2,3,5,6,4)&lt;/b&gt;" style="html=1;verticalLabelPosition=middle;align=center;labelBackgroundColor=none;verticalAlign=middle;strokeWidth=2;strokeColor=#d6b656;shadow=0;dashed=0;shape=mxgraph.ios7.icons.document;fillColor=#fff2cc;labelPosition=center;" parent="1" vertex="1">
          <mxGeometry x="520" y="750" width="130" height="150" as="geometry" />
        </mxCell>
        <mxCell id="1n6BO7QmYEcFSWPlNpG2-20" style="edgeStyle=orthogonalEdgeStyle;shape=connector;rounded=0;orthogonalLoop=1;jettySize=auto;html=1;entryX=-0.015;entryY=0.474;entryDx=0;entryDy=0;entryPerimeter=0;labelBackgroundColor=default;strokeColor=default;strokeWidth=4;align=center;verticalAlign=middle;fontFamily=Helvetica;fontSize=11;fontColor=default;endArrow=classic;" parent="1" source="1n6BO7QmYEcFSWPlNpG2-15" target="1n6BO7QmYEcFSWPlNpG2-19" edge="1">
          <mxGeometry relative="1" as="geometry">
            <Array as="points">
              <mxPoint x="450" y="445" />
              <mxPoint x="450" y="821" />
            </Array>
          </mxGeometry>
        </mxCell>
        <mxCell id="1n6BO7QmYEcFSWPlNpG2-31" style="edgeStyle=orthogonalEdgeStyle;shape=connector;rounded=0;orthogonalLoop=1;jettySize=auto;html=1;labelBackgroundColor=default;strokeColor=default;strokeWidth=4;align=center;verticalAlign=middle;fontFamily=Helvetica;fontSize=11;fontColor=default;endArrow=classic;" parent="1" source="1n6BO7QmYEcFSWPlNpG2-21" target="1n6BO7QmYEcFSWPlNpG2-30" edge="1">
          <mxGeometry relative="1" as="geometry" />
        </mxCell>
        <mxCell id="1n6BO7QmYEcFSWPlNpG2-21" value="&lt;b&gt;&lt;font style=&quot;font-size: 14px;&quot;&gt;usersproducts.html,&lt;/font&gt;&lt;br&gt;loginstatus.js,&lt;br&gt;usersproducts.js,&lt;br&gt;&lt;span style=&quot;border-color: var(--border-color);&quot;&gt;(2,3,5,6,4)&lt;/span&gt;&lt;br&gt;&lt;/b&gt;" style="html=1;verticalLabelPosition=middle;align=center;labelBackgroundColor=none;verticalAlign=middle;strokeWidth=2;strokeColor=#d6b656;shadow=0;dashed=0;shape=mxgraph.ios7.icons.document;fillColor=#fff2cc;labelPosition=center;" parent="1" vertex="1">
          <mxGeometry x="520" y="940" width="130" height="150" as="geometry" />
        </mxCell>
        <mxCell id="1n6BO7QmYEcFSWPlNpG2-22" style="edgeStyle=orthogonalEdgeStyle;shape=connector;rounded=0;orthogonalLoop=1;jettySize=auto;html=1;entryX=-0.015;entryY=0.571;entryDx=0;entryDy=0;entryPerimeter=0;labelBackgroundColor=default;strokeColor=default;strokeWidth=4;align=center;verticalAlign=middle;fontFamily=Helvetica;fontSize=11;fontColor=default;endArrow=classic;" parent="1" source="1n6BO7QmYEcFSWPlNpG2-15" target="1n6BO7QmYEcFSWPlNpG2-21" edge="1">
          <mxGeometry relative="1" as="geometry">
            <Array as="points">
              <mxPoint x="450" y="445" />
              <mxPoint x="450" y="1026" />
            </Array>
          </mxGeometry>
        </mxCell>
        <mxCell id="1n6BO7QmYEcFSWPlNpG2-23" value="&lt;div&gt;&lt;b&gt;&lt;font style=&quot;font-size: 14px;&quot;&gt;changedetails.html&lt;/font&gt;&lt;/b&gt;&lt;/div&gt;&lt;div&gt;&lt;b&gt;loginstatus.js,&lt;br&gt;&lt;/b&gt;&lt;/div&gt;&lt;div&gt;&lt;b&gt;edituser.js,&lt;br&gt;&lt;/b&gt;&lt;/div&gt;&lt;div&gt;&lt;b&gt;priceformat.js,&lt;br&gt;&lt;/b&gt;&lt;/div&gt;&lt;div&gt;&lt;b style=&quot;border-color: var(--border-color);&quot;&gt;(2,3,5,6,4)&lt;/b&gt;&lt;br&gt;&lt;/div&gt;" style="html=1;verticalLabelPosition=middle;align=center;labelBackgroundColor=none;verticalAlign=middle;strokeWidth=2;strokeColor=#d6b656;shadow=0;dashed=0;shape=mxgraph.ios7.icons.document;fillColor=#fff2cc;labelPosition=center;" parent="1" vertex="1">
          <mxGeometry x="520" y="1140" width="130" height="150" as="geometry" />
        </mxCell>
        <mxCell id="1n6BO7QmYEcFSWPlNpG2-24" style="edgeStyle=orthogonalEdgeStyle;shape=connector;rounded=0;orthogonalLoop=1;jettySize=auto;html=1;entryX=-0.015;entryY=0.556;entryDx=0;entryDy=0;entryPerimeter=0;labelBackgroundColor=default;strokeColor=default;strokeWidth=4;align=center;verticalAlign=middle;fontFamily=Helvetica;fontSize=11;fontColor=default;endArrow=classic;" parent="1" source="1n6BO7QmYEcFSWPlNpG2-15" target="1n6BO7QmYEcFSWPlNpG2-23" edge="1">
          <mxGeometry relative="1" as="geometry">
            <Array as="points">
              <mxPoint x="450" y="445" />
              <mxPoint x="450" y="1223" />
            </Array>
          </mxGeometry>
        </mxCell>
        <mxCell id="1n6BO7QmYEcFSWPlNpG2-25" value="&lt;b&gt;&lt;font style=&quot;font-size: 14px;&quot;&gt;searchproduct.html&lt;/font&gt;&lt;br&gt;&lt;/b&gt;&lt;div&gt;&lt;b&gt;loginstatus.js,&lt;br&gt;&lt;/b&gt;&lt;/div&gt;&lt;div&gt;&lt;b&gt;searchproduct.js&lt;/b&gt;&lt;br&gt;&lt;/div&gt;&lt;div&gt;&lt;b style=&quot;border-color: var(--border-color);&quot;&gt;(2,3,5,6,4)&lt;/b&gt;&lt;br&gt;&lt;/div&gt;" style="html=1;verticalLabelPosition=middle;align=center;labelBackgroundColor=none;verticalAlign=middle;strokeWidth=2;strokeColor=#d6b656;shadow=0;dashed=0;shape=mxgraph.ios7.icons.document;fillColor=#fff2cc;labelPosition=center;" parent="1" vertex="1">
          <mxGeometry x="520" y="1340" width="130" height="150" as="geometry" />
        </mxCell>
        <mxCell id="1n6BO7QmYEcFSWPlNpG2-26" style="edgeStyle=orthogonalEdgeStyle;shape=connector;rounded=0;orthogonalLoop=1;jettySize=auto;html=1;entryX=-0.033;entryY=0.685;entryDx=0;entryDy=0;entryPerimeter=0;labelBackgroundColor=default;strokeColor=default;strokeWidth=4;align=center;verticalAlign=middle;fontFamily=Helvetica;fontSize=11;fontColor=default;endArrow=classic;" parent="1" source="1n6BO7QmYEcFSWPlNpG2-15" target="1n6BO7QmYEcFSWPlNpG2-25" edge="1">
          <mxGeometry relative="1" as="geometry">
            <Array as="points">
              <mxPoint x="450" y="445" />
              <mxPoint x="450" y="1443" />
            </Array>
          </mxGeometry>
        </mxCell>
        <mxCell id="1n6BO7QmYEcFSWPlNpG2-27" value="&lt;b&gt;&lt;font style=&quot;font-size: 14px;&quot;&gt;success.html,&lt;/font&gt;&lt;br&gt;loginstatus.js,&lt;br&gt;(2,3,5,6,4)&lt;/b&gt;" style="html=1;verticalLabelPosition=middle;align=center;labelBackgroundColor=none;verticalAlign=middle;strokeWidth=2;strokeColor=#d6b656;shadow=0;dashed=0;shape=mxgraph.ios7.icons.document;fillColor=#fff2cc;labelPosition=center;" parent="1" vertex="1">
          <mxGeometry x="750" y="750" width="130" height="150" as="geometry" />
        </mxCell>
        <mxCell id="1n6BO7QmYEcFSWPlNpG2-30" value="&lt;b&gt;&lt;font style=&quot;font-size: 14px;&quot;&gt;editproduct.html,&lt;/font&gt;&lt;br&gt;loginstatus.js,&lt;br&gt;productcategories,&lt;br&gt;editproduct.js,&lt;br&gt;(2,3,5,6,4),&lt;/b&gt;" style="html=1;verticalLabelPosition=middle;align=center;labelBackgroundColor=none;verticalAlign=middle;strokeWidth=2;strokeColor=#d6b656;shadow=0;dashed=0;shape=mxgraph.ios7.icons.document;fillColor=#fff2cc;labelPosition=center;" parent="1" vertex="1">
          <mxGeometry x="760" y="940" width="130" height="150" as="geometry" />
        </mxCell>
        <mxCell id="1n6BO7QmYEcFSWPlNpG2-33" value="&lt;b&gt;&lt;span style=&quot;font-size: 14px;&quot;&gt;adminhome.html,&lt;/span&gt;&lt;br&gt;adminhome.js,&lt;br&gt;adminloginstatus.js,&lt;br&gt;(3,2,6,5,1)&lt;/b&gt;" style="html=1;verticalLabelPosition=middle;align=center;labelBackgroundColor=none;verticalAlign=middle;strokeWidth=2;strokeColor=#d6b656;shadow=0;dashed=0;shape=mxgraph.ios7.icons.document;fillColor=#fff2cc;labelPosition=center;" parent="1" vertex="1">
          <mxGeometry x="100" y="570" width="130" height="150" as="geometry" />
        </mxCell>
        <mxCell id="1n6BO7QmYEcFSWPlNpG2-34" value="&lt;b&gt;&lt;span style=&quot;font-size: 14px;&quot;&gt;adminuserserch.html,&lt;/span&gt;&lt;br&gt;adminhome.js,&lt;br&gt;adminloginstatus.js,&lt;br&gt;(3,2,6,5,1)&lt;/b&gt;" style="html=1;verticalLabelPosition=middle;align=center;labelBackgroundColor=none;verticalAlign=middle;strokeWidth=2;strokeColor=#d6b656;shadow=0;dashed=0;shape=mxgraph.ios7.icons.document;fillColor=#fff2cc;labelPosition=center;" parent="1" vertex="1">
          <mxGeometry x="100" y="750" width="130" height="150" as="geometry" />
        </mxCell>
        <mxCell id="1n6BO7QmYEcFSWPlNpG2-35" style="edgeStyle=orthogonalEdgeStyle;shape=connector;rounded=0;orthogonalLoop=1;jettySize=auto;html=1;entryX=1.002;entryY=0.648;entryDx=0;entryDy=0;entryPerimeter=0;labelBackgroundColor=default;strokeColor=default;strokeWidth=4;align=center;verticalAlign=middle;fontFamily=Helvetica;fontSize=11;fontColor=default;endArrow=classic;" parent="1" source="1n6BO7QmYEcFSWPlNpG2-33" target="1n6BO7QmYEcFSWPlNpG2-34" edge="1">
          <mxGeometry relative="1" as="geometry">
            <Array as="points">
              <mxPoint x="290" y="635" />
              <mxPoint x="290" y="847" />
            </Array>
          </mxGeometry>
        </mxCell>
      </root>
    </mxGraphModel>
  </diagram>
</mxfile>
